<svg xmlns="http://www.w3.org/2000/svg" viewBox="0 0 512 512">
  <rect width="512" height="512" fill="#000"/>
  <!-- ticket de comanda -->
  <path d="M136 92h240v300l-30 22-30-22-30 22-30-22-30 22-30-22-30 22-30-22z" fill="#fff"/>
  <rect x="166" y="132" width="180" height="16" fill="#000"/>
  <!-- casillas -->
  <rect x="166" y="184" width="40" height="40" fill="#E00000"/>
  <path d="M174 204l10 10 16-20" fill="none" stroke="#fff" stroke-width="8" stroke-linecap="square"/>
  <rect x="222" y="196" width="124" height="16" fill="#000"/>
  <rect x="166" y="248" width="40" height="40" fill="#FF5B00"/>
  <path d="M174 268l10 10 16-20" fill="none" stroke="#fff" stroke-width="8" stroke-linecap="square"/>
  <rect x="222" y="260" width="124" height="16" fill="#000"/>
  <rect x="169" y="315" width="34" height="34" fill="none" stroke="#000" stroke-width="6"/>
  <rect x="222" y="324" width="96" height="16" fill="#000"/>
  <!-- filete -->
  <rect x="0" y="448" width="512" height="32" fill="#E00000"/>
  <rect x="0" y="480" width="512" height="32" fill="#FF5B00"/>
</svg>
